V I D E O
-------------------------------------------------
Format                           : MPEG-4 Visual
Format profile                   : Streaming Video@L1
Format settings, BVOP            : Yes
Format settings, QPel            : No
Format settings, GMC             : No warppoints
Format settings, Matrix          : Default (H.263)
Muxing mode                      : Packed bitstream
Codec ID                         : XVID
Codec ID/Hint                    : XviD
Duration                         : 1h 26mn
Bit rate                         : 1 020 Kbps
Width                            : 640 pixels
Height                           : 352 pixels
Display aspect ratio             : 16/9
Frame rate                       : 25.000 fps
Resolution                       : 24 bits
Colorimetry                      : 4:2:0
Scan type                        : Progressive
Bits/(Pixel*Frame)               : 0.181
Stream size                      : 629 MiB (90%)
Writing library                  : XviD 55
-------------------------------------------------
A U D I O
-------------------------------------------------
Format                           : MPEG Audio
Format version                   : Version 1
Format profile                   : Layer 3
Codec ID                         : 55
Codec ID/Hint                    : MP3
Duration                         : 1h 26mn
Bit rate mode                    : Variable
Bit rate                         : 114 Kbps
Minimum bit rate                 : 128 Kbps
Channel(s)                       : 2 channels
Sampling rate                    : 44.1 KHz
Resolution                       : 16 bits
Stream size                      : 62.5 MiB (9%)
Alignment                        : Aligned on interleaves
Interleave, duration             : 26 ms (0.65 video frame)
Interleave, preload duration     : 545 ms
Writing library                  : LAME3.98r
Encoding settings                : ABR
-------------------------------------------------
P L O T
-------------------------------------------------
Special Agent Strahm is long gone, and Det. Hoffman 
(Costas Mandylor) is now the heir to John Jigsaw's 
(Tobin Bell) terrifying legacy. FBI Agent Erickson 
(Mark Rolston) is now hot on his trail, but Hoffman 
is about to reveal Jigsaw's grand plot. Kevin Greutert 
directs this next installment of the smash horror dynasty, 
while Betsy Russell, Peter Outerbridge, Tanedra Howard and 
Shawnee Smith co-star.

Starring: Tobin Bell, Angus Macfadyen

Director: Kevin Greutert
-------------------------------------------------